<svg width="1280" height="600" style="zoom:0.6" xmlns="http://www.w3.org/2000/svg" xmlns:xlink="http://www.w3.org/1999/xlink" overflow="hidden"><defs><clipPath id="clip0"><path d="M0 0 1280 0 1280 600 0 720Z" fill-rule="evenodd" clip-rule="evenodd"/></clipPath></defs><g clip-path="url(#clip0)"><rect x="48.5001" y="39.5001" width="380" height="164" stroke="#dae8fc" stroke-linejoin="round" stroke-miterlimit="10" fill="#dae8fc"/><text font-family="Calibri,sans-serif" font-weight="700" font-size="32" transform="translate(188.549 73)">Catalog<tspan font-weight="400" font-size="24" x="-124.253" y="60">A catalog is a compiled collection of</tspan><tspan font-weight="400" font-size="24" x="-75.1067" y="88">metadata about datasets.</tspan></text><rect x="428.5" y="237.5" width="380" height="165" stroke="#dae8fc" stroke-linejoin="round" stroke-miterlimit="10" fill="#dae8fc"/><text font-family="Calibri,sans-serif" font-weight="700" font-size="32" transform="translate(566.668 272)">Dataset<tspan font-weight="400" font-size="24" x="-122.613" y="60">A dataset is a general description of</tspan><tspan font-weight="400" font-size="24" x="-108.56" y="88">a collection of data, published or</tspan><tspan font-weight="400" font-size="24" x="-118.28" y="117">compiled by a single administrator.</tspan></text><rect x="808.5" y="435.5" width="379" height="165" stroke="#A9D18E" stroke-linejoin="round" stroke-miterlimit="10" fill="#dae8fc"/><text font-family="Calibri,sans-serif" font-weight="700" font-size="32" transform="translate(918.194 470)">Distribution<tspan font-weight="400" font-size="24" x="-100.88" y="60">A distribution describes the channels</tspan><tspan font-weight="400" font-size="24" x="-79.58" y="88">through which a dataset is made</tspan><tspan font-weight="400" font-size="24" x="33.3666" y="117">available.</tspan></text><path d="M428 118 620.798 118 620.798 221.865 614.798 221.865 614.798 121 617.798 124 428 124ZM626.798 218.865 617.798 236.865 608.798 218.865Z" fill="#111111"/><path d="M808 316 1000.8 316 1000.8 419.865 994.798 419.865 994.798 319 997.798 322 808 322ZM1006.8 416.865 997.798 434.865 988.798 416.865Z" fill="#111111"/><text fill="#111111" font-family="Calibri,sans-serif" font-weight="400" font-size="24" transform="translate(868.653 307)">available via<tspan x="-342.303" y="-198">contains</tspan><tspan x="-297.35" y="-157">1..n</tspan><tspan x="82.2466" y="44">1..n</tspan></text></g></svg>